<?xml version="1.0" standalone="no"?>
<!DOCTYPE svg PUBLIC "-//W3C//DTD SVG 20010904//EN"
 "http://www.w3.org/TR/2001/REC-SVG-20010904/DTD/svg10.dtd">
<svg version="1.0" xmlns="http://www.w3.org/2000/svg"
 width="700.000000pt" height="700.000000pt" viewBox="0 0 700.000000 700.000000"
 preserveAspectRatio="xMidYMid meet">
<metadata>
Created by potrace 1.11, written by Peter Selinger 2001-2013
</metadata>
<g transform="translate(0.000000,700.000000) scale(0.100000,-0.100000)"
fill="#000000" stroke="none">
<path d="M476 6984 c-178 -43 -333 -167 -411 -329 -70 -144 -65 113 -64 -3150
0 -1765 4 -2968 9 -2995 5 -25 12 -56 14 -68 3 -13 22 -58 43 -100 52 -106
168 -223 273 -274 149 -73 -117 -67 3153 -68 1921 0 2964 3 2995 10 165 35
290 111 385 235 52 68 81 127 108 223 17 61 18 118 18 966 0 930 0 949 -40
1056 -42 114 -155 246 -265 310 l-61 35 38 70 c99 184 101 424 5 590 -13 22
-33 56 -44 76 -42 75 -47 84 -52 89 -5 5 -16 24 -57 99 -14 25 -29 51 -33 56
-6 8 -442 750 -500 850 -9 17 -32 55 -50 85 -18 30 -38 64 -44 75 -93 168
-176 261 -283 321 -114 64 -196 86 -323 84 -87 0 -122 -4 -138 -14 -9 -5 -10
6 -5 41 35 244 -70 473 -277 608 -54 35 -333 200 -460 272 -19 11 -134 79
-255 150 -759 447 -778 457 -852 480 -74 22 -76 22 -154 27 -86 7 -232 -23
-303 -62 l-54 -29 -17 31 c-46 78 -181 185 -285 224 -108 41 -109 41 -1050 41
-750 -1 -915 -3 -964 -15z"/>
</g>
</svg>
