<?xml version="1.0" encoding="iso-8859-1"?>
<!-- Generator: Adobe Illustrator 19.0.0, SVG Export Plug-In . SVG Version: 6.00 Build 0)  -->
<svg version="1.1" id="Capa_1"
	xmlns="http://www.w3.org/2000/svg"
	xmlns:xlink="http://www.w3.org/1999/xlink" x="0px" y="0px" viewBox="0 0 512 512" style="enable-background:new 0 0 512 512;" xml:space="preserve">
	<path style="fill:#00B77B;" d="M467,301h-24.994c-2.637,0-5.215,0.688-7.5,2.007L188.5,444.906c-4.644,2.681-7.5,7.632-7.5,12.993
	V467c0,8.046-6.394,14.509-14.352,14.868L166,512h301c24.814,0,45-20.186,45-45V346C512,321.186,491.814,301,467,301z"/>
	<path style="fill:#00DA7C;" d="M203.5,471.893c-2.329,1.333-4.907,2.007-7.5,2.007s-5.186-0.674-7.5-2.007
	c-4.644-2.681-7.5-8.632-7.5-13.993v-41.396c0-2.637,0.688-5.215,2.007-7.5l143.994-249.595c1.318-2.271,3.208-4.175,5.479-5.493
	l32.71-18.911c21.606-12.158,49.175-4.717,61.567,16.538L487.786,255.4c12.173,21.592,4.731,49.146-16.523,61.553
	c0,0-0.029,0.015-0.029,0.029L203.5,471.893z M463.704,304.003h0.293H463.704z"/>
	<path style="fill:#E5741A;" d="M196,431.503c-1.289,0-2.593-0.161-3.882-0.513C185.556,429.232,181,423.3,181,416.503v-361
	c0-2.651,0.703-5.259,2.051-7.559l6.299-10.796c5.889-10.283,15.571-17.695,27.173-20.786c11.66-3.12,23.745-1.465,34.131,4.57
	l104.033,60.971c10.254,5.889,17.871,15.923,20.903,27.524c3.047,11.631,1.392,23.657-4.644,33.853L208.993,424.003
	C206.269,428.72,201.259,431.503,196,431.503z"/>
	<path style="fill:#FEA832;" d="M185.565,181L211,151V45c0-24.814-20.186-45-45-45H45C20.186,0,0,20.186,0,45v106l30.326,30H185.565z
	"/>
	<polygon style="fill:#FCBF29;" points="186.001,331 211,301 211,151 0,151 0,301 34.814,331 "/>
	<path style="fill:#FEDB41;" d="M211,467c0,24.814-20.186,45-45,45H45c-24.814,0-45-20.186-45-45V301h211V467z"/>
	<path style="fill:#787780;" d="M106,451c-24.814,0-45-20.186-45-45s20.186-45,45-45s45,20.186,45,45S130.814,451,106,451z"/>
	<g>
	</g>
	<g>
	</g>
	<g>
	</g>
	<g>
	</g>
	<g>
	</g>
	<g>
	</g>
	<g>
	</g>
	<g>
	</g>
	<g>
	</g>
	<g>
	</g>
	<g>
	</g>
	<g>
	</g>
	<g>
	</g>
	<g>
	</g>
	<g>
	</g>
</svg>
